<svg xmlns="http://www.w3.org/2000/svg" width="75" height="75" stroke="null" fill="currentColor">
  <path d="M59.1 7.24c-.7 0-1.3.61-1.3 1.32v15.27a5.2 5.2 0 0 1-5.19 5.25v33.48c0 .58.58 1.3 1.32 1.3.18 0 .35-.03.5-.1.46-.2.76-.65.76-1.2V31.24a7.7 7.7 0 0 0 5.2-7.35V8.46c0-.72-.61-1.22-1.3-1.22M54.4 21.3h.03c.71 0 1.3-.58 1.3-1.3V8.56c0-.7-.59-1.28-1.3-1.28v-.02h-.03c-.71 0-1.3.58-1.3 1.3V20c.01.72.6 1.3 1.3 1.3zM49.74 7.28v-.01h-.03c-.71 0-1.3.58-1.3 1.3V20c0 .71.59 1.3 1.3 1.3h.03c.72 0 1.3-.59 1.3-1.3V8.56c-.01-.7-.6-1.28-1.3-1.28zm-4.43-.01H11.63c-.58 0-1.05.47-1.05 1.05v19.72A16.9 16.9 0 0 0 24.6 44.47v5.35c0 6.33-5.17 11.45-11.39 11.45-.79 0-1.52.41-1.52 1.26 0 1.16 1.05 1.32 1.47 1.32 7.7 0 14.02-6.33 14.02-14.03V43.6c.08-.84-.4-1.5-1.02-1.56-6.96-.73-12.97-6.22-12.97-14V9.88h30.57v18.16c0 6.57-4.28 11.5-9.8 13.33-1.02.33-2.09.57-3.16.67-.63.05-1.11.72-1.03 1.56v6.22c0 3.9 1.6 7.44 4.2 9.98 2.54 2.5 6 4.05 9.82 4.05.42 0 1.48-.16 1.48-1.32 0-.84-.74-1.26-1.53-1.26-7.18-.01-11.27-6-11.38-11.45v-5.35a16.95 16.95 0 0 0 14.01-16.42V8.31c0-.58-.48-1.05-1.06-1.05zM8.96 2.52A6.46 6.46 0 0 0 2.5 8.98v53.1a6.46 6.46 0 0 0 6.46 6.47h53.07c3.57 0 6.47-2.9 6.47-6.46V8.99c0-3.58-2.9-6.47-6.47-6.47H8.96zM70.83 9v53.08A8.83 8.83 0 0 1 62 70.9H8.96a8.83 8.83 0 0 1-8.82-8.8V9A8.83 8.83 0 0 1 8.96.18H62a8.83 8.83 0 0 1 8.82 8.83z" />
</svg>