<svg xmlns="http://www.w3.org/2000/svg" width="75" height="75" fill="currentColor" stroke="null">
  <path d="M0-.1v71.2h71V-.1H0zm67.7 67.8H3.3V3.3h64.4v64.4z"/>
  <path d="M18.1 36.3a9.2 9.2 0 0 0-3.7 4 10.2 10.2 0 0 0-5.8-.7c.8 1 2 1.7 2.6 2.8.8 1.2 1.1 2.6 1.7 3.9.8 1.5 2 2.7 3.9 2.1 2.3-.6 2.3-2.8 2-4.6a31.5 31.5 0 0 1-.4-3.9V38l-.1-1.7h-.2zm8-25.5c-5.3.6-10.7 2.5-15.9 6.7a31.2 31.2 0 0 0 26.4 6.2l4.5 2.6-.4-3.7a48.4 48.4 0 0 0 8.2-3.2l8.7 4.5-4.1-6.7 4.1-6.6-8.8 4.9a46 46 0 0 0-15.6-4.7l-.3-3.6-6.9 3.6zm-5.4 5c0 1-.8 1.9-1.9 1.9a1.9 1.9 0 0 1-1.9-1.9c0-1 .9-1.9 2-1.9 1 0 1.8.9 1.8 1.9z"/>
  <path d="m21.9 52.4-1.3 5.2a31.7 31.7 0 0 0-2.4-8.7l-.6-1.4-1.4.6.7 1.4a29.9 29.9 0 0 1 1.7 5.6c-1-1.7-3-3-6.4-1.1 0 0-3.4 1.6-2.8 4 0 0 5.6-5.4 9.6-1.2l.3 3V62h.2v.3l1.4.3 1.2-5c7.7-3.4 10.1-2.8 10.3-2.7l-.2-.2c-4.6-2.4-8.1.2-9.9 2l1-4 2.1-9.6-1.4-.3-2.1 9.6z"/>
  <path d="M24.9 35a10.7 10.7 0 0 0-3.2-2c.2 1.3.8 2.6.9 3.9 0 1.4-.5 2.8-.5 4.3-.1 1.6.3 3.3 2.3 3.8l.8.1c1.8 0 2.8-1.6 3.3-3.1a34.7 34.7 0 0 1 1.6-3.7l1-1.7.8-1.5h-.3c-1.1 0-2.3.2-3.3.6l-.7-3L25 35zm2.6.9.2 1 .9-.4a8.4 8.4 0 0 1 1.8-.5l-.1.2-1 1.7a35.3 35.3 0 0 0-1.6 3.8c-1 2.6-2.1 2.6-2.5 2.6h-.6c-.9-.3-1.8-.8-1.7-3l.2-1.8c.2-.8.3-1.7.3-2.7 0-.7-.3-1.5-.5-2.2l1.4 1 .6.4.5-.4 1.7-1.3.4 1.6z"/>
  <path d="M25.5 36.9a2.6 2.6 0 0 1-2.5.3l-.5 3.7.3 2.3 1.1 1 2 .4 1.7-1.5 1-3.1 1.4-2.6-3.4.9-.3-2-.8.6zm27.2-8.5c-3.3 2-3.6 5.9-3.2 8.9a3.5 3.5 0 0 1 1.5 1l.9-.7c-.4-2.5-.4-5.7 2-7.3.6-.3.8-1 .4-1.6-.3-.5-1-.7-1.6-.3zm-11.6 1c2.3 5.5 7.2 5 7.2 5s-1.3-6-7.2-5zm7.5 28.4h-.3a3.6 3.6 0 0 0 3.1 5.2 3.6 3.6 0 0 0 3.2-5.2 3.6 3.6 0 0 1-3.2-1.3 3.6 3.6 0 0 1-2.8 1.3zm3.2-6h-.3a3.6 3.6 0 0 0-.5 1.8 3.6 3.6 0 0 0 3.6 3.6 3.6 3.6 0 0 0 3-5.5h-.3a3.6 3.6 0 0 1-2.7-1.3 3.6 3.6 0 0 1-2.8 1.3zm-6.4 0h-.2a3.5 3.5 0 0 0-.6 1.8 3.6 3.6 0 0 0 3.6 3.6 3.6 3.6 0 0 0 2.8-1.4 3.5 3.5 0 0 1-.8-2.2c0-.7.2-1.3.5-1.9a3.6 3.6 0 0 1-2.5-1.3 3.6 3.6 0 0 1-2.8 1.3zm-3.2-6.4a3.6 3.6 0 0 0-.8 2.1 3.6 3.6 0 0 0 3.6 3.6 3.6 3.6 0 0 0 2.8-1.3 3.6 3.6 0 0 1-.8-2.3c0-.8.3-1.5.7-2.1h-.2a3.5 3.5 0 0 1-2.8-1.3 3.6 3.6 0 0 1-2.5 1.3zm12.6 0a3.5 3.5 0 0 0-.7 2.1 3.6 3.6 0 0 0 3.6 3.6 3.6 3.6 0 0 0 2.8-5.7h-.4a3.5 3.5 0 0 1-2.7-1.3 3.6 3.6 0 0 1-2.6 1.3z"/>
  <path d="M48.5 45.4a3.6 3.6 0 0 0 2.8 5.7 3.6 3.6 0 0 0 2.8-1.4 3.5 3.5 0 0 1-.8-2.2c0-.8.3-1.5.8-2.1h-.3A3.5 3.5 0 0 1 51 44a3.6 3.6 0 0 1-2.5 1.3zm-10.6-4.2a3.6 3.6 0 0 0 3.6 3.5 3.6 3.6 0 0 0 2.8-1.3 3.5 3.5 0 0 1-.8-2.2c0-.9.3-1.6.8-2.2a3.6 3.6 0 0 0-2.8-1.4 3.6 3.6 0 0 0-3.6 3.6zm19 0a3.6 3.6 0 0 0 3.5 3.5 3.6 3.6 0 0 0 3.6-3.5 3.6 3.6 0 0 0-3.6-3.6 3.6 3.6 0 0 0-3.6 3.6z"/>
  <path d="M50.5 41.2a3.6 3.6 0 0 0 3.6 3.5 3.5 3.5 0 0 0 2.8-1.3 3.5 3.5 0 0 1-.8-2.2c0-.9.3-1.6.8-2.2a3.6 3.6 0 0 0-6.4 2.2z"/>
  <path d="M44.3 41.2a3.6 3.6 0 0 0 3.5 3.5 3.6 3.6 0 0 0 2.8-1.3 3.5 3.5 0 0 1-.8-2.2c0-.9.3-1.6.8-2.2a3.6 3.6 0 0 0-2.8-1.4 3.6 3.6 0 0 0-3.5 3.6z"/>
</svg>