<svg xmlns="http://www.w3.org/2000/svg" width="75" height="75" fill="currentColor" stroke="null">
  <path d="m69.2 52-6.6-11-5 3.8 6.6 11c.8 1.5.4 2.8.1 3.4a4 4 0 0 1-3.7 2.3H37.1v-2.9L29 64.8l8.2 6.3v-2.8h23.5a10 10 0 0 0 9-5.9c1.5-3.3 1.4-7.2-.4-10.4zM6.6 58.8c-.4-.7-.8-2.3.1-4l8.8-15.7 2 1.4-.6-11.3-8.8 5 2.2 1.5-8.6 15.5A12 12 0 0 0 1.3 62c1.9 3.8 5.5 6.2 9.5 6.2h14.5v-6.9H10.8a4.6 4.6 0 0 1-4.2-2.6zM32.4 8.5c.6-1 1.6-1.6 2.8-1.6A3 3 0 0 1 38 8.5l14 25.3-2.3 1.5 8.9 5 .7-11.3-2.1 1.4L43 4.8A8.9 8.9 0 0 0 35.2.1a8.9 8.9 0 0 0-7.8 4.7L16.1 24.4l5 3.7L32.4 8.5z"/>
  <text x="23.3" y="57.5" font-family="Arial, Helvetica, sans-serif" font-size="43" font-weight="bold">7</text>
</svg>